<svg width="8" height="10" viewBox="0 0 8 10" fill="none" xmlns="http://www.w3.org/2000/svg">
    <path d="M0.615831 11.6769L4.29776 8.17124C4.49869 7.97993 4.71534 7.80585 4.94543 7.65085L5.14981 7.51317C5.51386 7.26791 5.51386 6.73209 5.14981 6.48683L4.94543 6.34915C4.71534 6.19415 4.49868 6.02007 4.29776 5.82876L0.615831 2.32309C0.529571 2.24093 0.461145 2.14338 0.414462 2.03602C0.367778 1.92866 0.34375 1.81359 0.34375 1.69739C0.34375 1.58118 0.367778 1.46611 0.414462 1.35875C0.461145 1.2514 0.529571 1.15385 0.615831 1.07168C0.702092 0.989508 0.804497 0.924328 0.917202 0.879858C1.02991 0.835388 1.1507 0.8125 1.27269 0.8125C1.39468 0.8125 1.51548 0.835388 1.62819 0.879858C1.74089 0.924328 1.8433 0.989508 1.92956 1.07168L7.49618 6.37429C7.58258 6.45639 7.65113 6.55391 7.6979 6.66128C7.74467 6.76865 7.76875 6.88375 7.76875 7C7.76875 7.11625 7.74467 7.23135 7.6979 7.33872C7.65113 7.44609 7.58258 7.54361 7.49618 7.62571L1.92956 12.9283C1.8433 13.0105 1.74089 13.0757 1.62819 13.1201C1.51548 13.1646 1.39468 13.1875 1.27269 13.1875C1.1507 13.1875 1.02991 13.1646 0.917202 13.1201C0.804497 13.0757 0.702092 13.0105 0.615831 12.9283C0.529571 12.8462 0.461145 12.7486 0.414462 12.6412C0.367778 12.5339 0.34375 12.4188 0.34375 12.3026C0.34375 12.1864 0.367778 12.0713 0.414462 11.964C0.461145 11.8566 0.529571 11.7591 0.615831 11.6769Z" fill="#E20080"/>
    </svg>
